<svg width="85" height="84" viewBox="0 0 85 84" fill="none" xmlns="http://www.w3.org/2000/svg">
<path d="M42.5006 84H42.1955C22.5637 83.9486 9.40979 79.8846 6.676 77.3782C3.79561 74.8165 0 61.5689 0 42C0 22.4311 3.79561 9.18355 6.67996 6.6218C9.40979 4.1154 22.6152 0.0513931 42.1955 0H42.5006C62.1323 0.0513931 75.2862 4.1154 78.02 6.6218C80.9044 9.17959 84.7 22.4785 84.7 41.996C84.7 61.5136 80.9044 74.8125 78.02 77.3703C75.2862 79.9281 62.1323 83.9921 42.5006 83.9921V84Z" fill="#FFFAEB"/>
<mask id="mask0_2637_17721" style="mask-type:alpha" maskUnits="userSpaceOnUse" x="21" y="22" width="41" height="41">
<rect x="21.8984" y="22.2773" width="40" height="40" fill="#D9D9D9"/>
</mask>
<g mask="url(#mask0_2637_17721)">
<path d="M28.0102 55.61C27.2602 55.61 26.6097 55.3346 26.0588 54.7837C25.5079 54.2327 25.2324 53.5823 25.2324 52.8323V31.7211C25.2324 30.9711 25.5079 30.3207 26.0588 29.7697C26.6097 29.2188 27.2602 28.9434 28.0102 28.9434H55.788C56.538 28.9434 57.1885 29.2188 57.7394 29.7697C58.2903 30.3207 58.5658 30.9711 58.5658 31.7211V43.4851C57.7695 43.0591 56.9199 42.9063 56.0172 43.0267C55.1144 43.1471 54.325 43.5452 53.6491 44.2212L46.8158 51.0406L44.649 48.8878C43.8435 48.0823 42.862 47.6818 41.7046 47.6864C40.5472 47.6911 39.5658 48.0962 38.7602 48.9017C37.9454 49.7165 37.538 50.7026 37.538 51.86C37.538 53.0174 37.9408 53.9989 38.7463 54.8044L39.5519 55.61H28.0102ZM28.0102 35.61V41.6934H55.788V35.61H28.0102Z" fill="#092256"/>
<path d="M46.9172 54.6944L55.7089 45.9027C55.9867 45.6249 56.3177 45.493 56.702 45.5069C57.0862 45.5207 57.4172 45.6666 57.695 45.9444C57.945 46.2221 58.077 46.5462 58.0909 46.9166C58.1047 47.2869 57.9728 47.611 57.695 47.8888L47.8894 57.6944C47.6117 57.9721 47.2876 58.111 46.9172 58.111C46.5469 58.111 46.2228 57.9721 45.945 57.6944L40.8061 52.5554C40.5376 52.2869 40.4057 51.9605 40.4103 51.5763C40.4149 51.192 40.5561 50.861 40.8339 50.5832C41.1024 50.3147 41.4288 50.1804 41.8131 50.1804C42.1973 50.1804 42.5283 50.3147 42.8061 50.5832L46.9172 54.6944Z" fill="#0357EE"/>
</g>
</svg>
